# xmcd CD database file
#
# Track frame offsets:
#	150
#	10825
#	24076
#	33254
#	51304
#	71435
#	86978
#	98471
#	114306
#	131861
#
# Disc length: 1903 seconds
#
# Revision: 0
# Processed by: cddbd v1.5.2PL0 Copyright (c) Steve Scherf et al.
# Submitted via: CDex 2.14
#
DISCID=76076d0a
DTITLE=Memphis Slim - The Best Of Memphis Slim
DYEAR=2004
DGENRE=Blues
TTITLE0=Misery
TTITLE1=The Driving Wheel
TTITLE2=Sassy Mae
TTITLE3=We've Been Together Too Long
TTITLE4=Life Is Like That
TTITLE5=Mother Earth
TTITLE6=My Gal Keeps Me Crying
TTITLE7=HCF Boogie
TTITLE8=The Comeback
TTITLE9=Kansas City
EXTD=YEAR: 2004
EXTT0=
EXTT1=
EXTT2=
EXTT3=
EXTT4=
EXTT5=
EXTT6=
EXTT7=
EXTT8=
EXTT9=
PLAYORDER=
